{
  "source": "C:\\Users\\Peter\\Desktop\\stuff\\MIUN\\quantitative_research\\video_compression\\videos\\UVG\\YachtRide_1920x1080_120fps_420_8bit_YUV.y4m",
  "output": "C:\\Users\\Peter\\Desktop\\stuff\\MIUN\\quantitative_research\\video_compression\\compressed_videos\\UVG\\hevc\\8\\YachtRide_1920x1080_120fps_420_8bit_YUV_hevc.mp4",
  "codec": "hevc",
  "ok": "[yuv4mpegpipe @ 000002053f876740] Stream #0: not enough frames to estimate rate; consider increasing probesize\nInput #0, yuv4mpegpipe, from 'C:\\Users\\Peter\\Desktop\\stuff\\MIUN\\quantitative_research\\video_compression\\videos\\UVG\\YachtRide_1920x1080_120fps_420_8bit_YUV.y4m':\n  Duration: 00:00:05.00, start: 0.000000, bitrate: 2985989 kb/s\n  Stream #0:0: Video: rawvideo (I420 / 0x30323449), yuv420p(progressive), 1920x1080, 120 fps, 120 tbr, 120 tbn\n[out#0/mp4 @ 000002053f879a80] Codec AVOption b:a (set bitrate (in bits/s)) has not been used for any stream. The most likely reason is either wrong type (e.g. a video option with no video streams) or that it is a private option of some decoder which was not actually used for any stream.\nStream mapping:\n  Stream #0:0 -> #0:0 (rawvideo (native) -> hevc (libx265))\nPress [q] to stop, [?] for help\n[libx265 @ 000002053f87cac0] Unknown option: \"aq-mode.\nx265 [info]: HEVC encoder version 4.1+190-8f11c33ac\nx265 [info]: build info [Windows][GCC 15.1.0][64 bit] 10bit\nx265 [info]: using cpu capabilities: MMX2 SSE2Fast LZCNT SSSE3 SSE4.2 AVX FMA3 BMI2 AVX2\nx265 [info]: Main 10 profile, Level-5 (Main tier)\nx265 [info]: Thread pool created using 12 threads\nx265 [info]: Slices                              : 1\nx265 [info]: frame threads / pool features       : 3 / wpp(17 rows)\nx265 [info]: Coding QT: max CU size, min CU size : 64 / 8\nx265 [info]: Residual QT: max TU size, max depth : 32 / 1 inter / 1 intra\nx265 [info]: ME / range / subpel / merge         : star / 57 / 3 / 3\nx265 [info]: Keyframe min / max / scenecut / bias  : 25 / 250 / 40 / 5.00 \nx265 [info]: Lookahead / bframes / badapt        : 25 / 4 / 2\nx265 [info]: b-pyramid / weightp / weightb       : 1 / 1 / 0\nx265 [info]: References / ref-limit  cu / depth  : 4 / on / on\nx265 [info]: AQ: mode / str / qg-size / cu-tree  : 2 / 1.0 / 32 / 1\nx265 [info]: Rate Control / qCompress            : ABR-8000 kbps / 0.60\nx265 [info]: VBV/HRD buffer / max-rate / init    : 8000 / 8000 / 0.750\nx265 [info]: tools: rect limit-modes rd=4 psy-rd=2.00 rdoq=2 psy-rdoq=1.00\nx265 [info]: tools: rskip mode=1 signhide tmvp strong-intra-smoothing lslices=4\nx265 [info]: tools: deblock sao dhdr10-info\nOutput #0, mp4, to 'C:\\Users\\Peter\\Desktop\\stuff\\MIUN\\quantitative_research\\video_compression\\compressed_videos\\UVG\\hevc\\8\\YachtRide_1920x1080_120fps_420_8bit_YUV_hevc.mp4':\n  Metadata:\n    encoder         : Lavf62.3.100\n  Stream #0:0: Video: hevc (hev1 / 0x31766568), yuv420p10le(tv, progressive), 1920x1080, q=2-31, 8000 kb/s, 120 fps, 15360 tbn\n    Metadata:\n      encoder         : Lavc62.11.100 libx265\n    Side data:\n      cpb: bitrate max/min/avg: 8000000/0/8000000 buffer size: 8000000 vbv_delay: N/A\nframe=    0 fps=0.0 q=0.0 size=       0KiB time=N/A bitrate=N/A speed=N/A elapsed=0:00:00.51    \nframe=    0 fps=0.0 q=0.0 size=       0KiB time=N/A bitrate=N/A speed=N/A elapsed=0:00:01.03    \nframe=    0 fps=0.0 q=0.0 size=       0KiB time=N/A bitrate=N/A speed=N/A elapsed=0:00:01.54    \nframe=    0 fps=0.0 q=0.0 size=       0KiB time=N/A bitrate=N/A speed=N/A elapsed=0:00:02.07    \nframe=    0 fps=0.0 q=0.0 size=       0KiB time=N/A bitrate=N/A speed=N/A elapsed=0:00:02.59    \nframe=    0 fps=0.0 q=0.0 size=       0KiB time=N/A bitrate=N/A speed=N/A elapsed=0:00:03.12    \nframe=    0 fps=0.0 q=0.0 size=       0KiB time=N/A bitrate=N/A speed=N/A elapsed=0:00:03.64    \nframe=    0 fps=0.0 q=0.0 size=       0KiB time=N/A bitrate=N/A speed=N/A elapsed=0:00:04.18    \nframe=    1 fps=0.2 q=37.9 size=       0KiB time=-00:00:00.00 bitrate=N/A speed=N/A elapsed=0:00:04.70    \nframe=    3 fps=0.6 q=45.8 size=       0KiB time=00:00:00.00 bitrate=N/A speed=   0x elapsed=0:00:05.22    \nframe=    4 fps=0.7 q=46.9 size=       0KiB time=00:00:00.01 bitrate=  21.1kbits/s speed=0.00289x elapsed=0:00:05.76    \nframe=    4 fps=0.6 q=46.9 size=       0KiB time=00:00:00.01 bitrate=  21.1kbits/s speed=0.00265x elapsed=0:00:06.29    \nframe=    4 fps=0.6 q=46.9 size=       0KiB time=00:00:00.01 bitrate=  21.1kbits/s speed=0.00244x elapsed=0:00:06.82    \nframe=    4 fps=0.5 q=46.9 size=       0KiB time=00:00:00.01 bitrate=  21.1kbits/s speed=0.00227x elapsed=0:00:07.35    \nframe=    5 fps=0.6 q=44.8 size=       0KiB time=00:00:00.02 bitrate=  14.1kbits/s speed=0.00317x elapsed=0:00:07.88    \nframe=    7 fps=0.8 q=36.1 size=       0KiB time=00:00:00.04 bitrate=   8.4kbits/s speed=0.00496x elapsed=0:00:08.40    \nframe=    8 fps=0.9 q=40.3 size=       0KiB time=00:00:00.05 bitrate=   7.0kbits/s speed=0.0056x elapsed=0:00:08.93    \nframe=    8 fps=0.8 q=40.3 size=       0KiB time=00:00:00.05 bitrate=   7.0kbits/s speed=0.00529x elapsed=0:00:09.44    \nframe=    8 fps=0.8 q=40.3 size=       0KiB time=00:00:00.05 bitrate=   7.0kbits/s speed=0.00501x elapsed=0:00:09.98    \nframe=    9 fps=0.9 q=41.6 size=       0KiB time=00:00:00.05 bitrate=   6.0kbits/s speed=0.00554x elapsed=0:00:10.52    \nframe=   10 fps=0.9 q=41.6 size=       0KiB time=00:00:00.06 bitrate=   5.3kbits/s speed=0.00604x elapsed=0:00:11.03    \nframe=   11 fps=1.0 q=34.8 size=       0KiB time=00:00:00.07 bitrate=   4.7kbits/s speed=0.00649x elapsed=0:00:11.55    \nframe=   12 fps=1.0 q=39.4 size=       0KiB time=00:00:00.08 bitrate=   4.2kbits/s speed=0.00688x elapsed=0:00:12.11    \nframe=   13 fps=1.0 q=41.9 size=       0KiB time=00:00:00.09 bitrate=   3.8kbits/s speed=0.00726x elapsed=0:00:12.62    \nframe=   14 fps=1.1 q=41.7 size=       0KiB time=00:00:00.10 bitrate=   3.5kbits/s speed=0.0076x elapsed=0:00:13.15    \nframe=   14 fps=1.0 q=41.7 size=       0KiB time=00:00:00.10 bitrate=   3.5kbits/s speed=0.00731x elapsed=0:00:13.67    \nframe=   16 fps=1.1 q=38.4 size=       0KiB time=00:00:00.11 bitrate=   3.0kbits/s speed=0.00821x elapsed=0:00:14.20    \nframe=   16 fps=1.1 q=38.4 size=       0KiB time=00:00:00.11 bitrate=   3.0kbits/s speed=0.00791x elapsed=0:00:14.74    \nframe=   16 fps=1.0 q=38.4 size=       0KiB time=00:00:00.11 bitrate=   3.0kbits/s speed=0.00763x elapsed=0:00:15.28    \nframe=   16 fps=1.0 q=38.4 size=       0KiB time=00:00:00.11 bitrate=   3.0kbits/s speed=0.00738x elapsed=0:00:15.81    \nframe=   17 fps=1.0 q=41.3 size=       0KiB time=00:00:00.12 bitrate=   2.8kbits/s speed=0.00764x elapsed=0:00:16.35    \nframe=   17 fps=1.0 q=41.3 size=       0KiB time=00:00:00.12 bitrate=   2.8kbits/s speed=0.00741x elapsed=0:00:16.86    \nframe=   18 fps=1.0 q=40.8 size=       0KiB time=00:00:00.13 bitrate=   2.6kbits/s speed=0.00767x elapsed=0:00:17.37    \nframe=   19 fps=1.1 q=34.5 size=       0KiB time=00:00:00.14 bitrate=   2.5kbits/s speed=0.00789x elapsed=0:00:17.96    \nframe=   19 fps=1.0 q=34.5 size=       0KiB time=00:00:00.14 bitrate=   2.5kbits/s speed=0.00766x elapsed=0:00:18.50    \nframe=   19 fps=1.0 q=34.5 size=       0KiB time=00:00:00.14 bitrate=   2.5kbits/s speed=0.00745x elapsed=0:00:19.01    \nframe=   20 fps=1.0 q=38.1 size=       0KiB time=00:00:00.15 bitrate=   2.3kbits/s speed=0.00768x elapsed=0:00:19.53    \nframe=   20 fps=1.0 q=38.1 size=       0KiB time=00:00:00.15 bitrate=   2.3kbits/s speed=0.00748x elapsed=0:00:20.05    \nframe=   21 fps=1.0 q=40.9 size=       0KiB time=00:00:00.15 bitrate=   2.2kbits/s speed=0.00769x elapsed=0:00:20.59    \nframe=   22 fps=1.0 q=40.7 size=       0KiB time=00:00:00.16 bitrate=   2.1kbits/s speed=0.00789x elapsed=0:00:21.13    \nframe=   23 fps=1.1 q=34.3 size=       0KiB time=00:00:00.17 bitrate=   2.0kbits/s speed=0.00807x elapsed=0:00:21.67    \nframe=   24 fps=1.1 q=38.1 size=       0KiB time=00:00:00.18 bitrate=   1.9kbits/s speed=0.00826x elapsed=0:00:22.19    \nframe=   24 fps=1.1 q=38.1 size=       0KiB time=00:00:00.18 bitrate=   1.9kbits/s speed=0.00807x elapsed=0:00:22.70    \nframe=   25 fps=1.1 q=40.7 size=       0KiB time=00:00:00.19 bitrate=   1.8kbits/s speed=0.00825x elapsed=0:00:23.22    \nframe=   25 fps=1.1 q=40.7 size=       0KiB time=00:00:00.19 bitrate=   1.8kbits/s speed=0.00806x elapsed=0:00:23.77    \nframe=   26 fps=1.1 q=40.7 size=       0KiB time=00:00:00.20 bitrate=   1.8kbits/s speed=0.00823x elapsed=0:00:24.29    \nframe=   27 fps=1.1 q=34.3 size=       0KiB time=00:00:00.20 bitrate=   1.7kbits/s speed=0.0084x elapsed=0:00:24.81    \nframe=   28 fps=1.1 q=38.1 size=       0KiB time=00:00:00.21 bitrate=   1.6kbits/s speed=0.00856x elapsed=0:00:25.32    \nframe=   29 fps=1.1 q=40.5 size=       0KiB time=00:00:00.22 bitrate=   1.6kbits/s speed=0.0087x elapsed=0:00:25.84    \nframe=   29 fps=1.1 q=40.5 size=       0KiB time=00:00:00.22 bitrate=   1.6kbits/s speed=0.00853x elapsed=0:00:26.37    \nframe=   29 fps=1.1 q=40.5 size=       0KiB time=00:00:00.22 bitrate=   1.6kbits/s speed=0.00837x elapsed=0:00:26.88    \nframe=   30 fps=1.1 q=40.7 size=       0KiB time=00:00:00.23 bitrate=   1.5kbits/s speed=0.00851x elapsed=0:00:27.41    \nframe=   32 fps=1.1 q=37.9 size=       0KiB time=00:00:00.25 bitrate=   1.4kbits/s speed=0.00894x elapsed=0:00:27.94    \nframe=   32 fps=1.1 q=37.9 size=       0KiB time=00:00:00.25 bitrate=   1.4kbits/s speed=0.00878x elapsed=0:00:28.46    \nframe=   33 fps=1.1 q=40.4 size=       0KiB time=00:00:00.25 bitrate=   1.4kbits/s speed=0.0089x elapsed=0:00:29.01    \nframe=   33 fps=1.1 q=40.4 size=       0KiB time=00:00:00.25 bitrate=   1.4kbits/s speed=0.00874x elapsed=0:00:29.54    \nframe=   34 fps=1.1 q=40.7 size=       0KiB time=00:00:00.26 bitrate=   1.3kbits/s speed=0.00887x elapsed=0:00:30.07    \nframe=   34 fps=1.1 q=40.7 size=       0KiB time=00:00:00.26 bitrate=   1.3kbits/s speed=0.00871x elapsed=0:00:30.62    \nframe=   36 fps=1.2 q=37.7 size=     256KiB time=00:00:00.28 bitrate=7403.0kbits/s speed=0.0091x elapsed=0:00:31.13    \nframe=   37 fps=1.2 q=40.7 size=     256KiB time=00:00:00.29 bitrate=7191.4kbits/s speed=0.00921x elapsed=0:00:31.66    \nframe=   37 fps=1.1 q=40.7 size=     256KiB time=00:00:00.29 bitrate=7191.4kbits/s speed=0.00906x elapsed=0:00:32.19    \nframe=   38 fps=1.2 q=40.5 size=     256KiB time=00:00:00.30 bitrate=6991.7kbits/s speed=0.00917x elapsed=0:00:32.70    \nframe=   38 fps=1.1 q=40.5 size=     256KiB time=00:00:00.30 bitrate=6991.7kbits/s speed=0.00902x elapsed=0:00:33.24    \nframe=   39 fps=1.2 q=34.8 size=     256KiB time=00:00:00.30 bitrate=6802.7kbits/s speed=0.00913x elapsed=0:00:33.76    \nframe=   40 fps=1.2 q=38.2 size=     256KiB time=00:00:00.31 bitrate=6623.7kbits/s speed=0.00924x elapsed=0:00:34.27    \nframe=   40 fps=1.1 q=38.2 size=     256KiB time=00:00:00.31 bitrate=6623.7kbits/s speed=0.00909x elapsed=0:00:34.82    \nframe=   41 fps=1.2 q=40.5 size=     256KiB time=00:00:00.32 bitrate=6453.9kbits/s speed=0.00919x elapsed=0:00:35.35    \nframe=   42 fps=1.2 q=40.5 size=     256KiB time=00:00:00.33 bitrate=6292.5kbits/s speed=0.00929x elapsed=0:00:35.88    \nframe=   42 fps=1.2 q=40.5 size=     256KiB time=00:00:00.33 bitrate=6292.5kbits/s speed=0.00915x elapsed=0:00:36.41    \nframe=   43 fps=1.2 q=34.7 size=     256KiB time=00:00:00.34 bitrate=6139.0kbits/s speed=0.00924x elapsed=0:00:36.96    \nframe=   44 fps=1.2 q=38.0 size=     256KiB time=00:00:00.35 bitrate=5992.9kbits/s speed=0.00933x elapsed=0:00:37.51    \nframe=   44 fps=1.2 q=38.0 size=     256KiB time=00:00:00.35 bitrate=5992.9kbits/s speed=0.0092x elapsed=0:00:38.03    \nframe=   45 fps=1.2 q=40.6 size=     256KiB time=00:00:00.35 bitrate=5853.5kbits/s speed=0.00929x elapsed=0:00:38.55    \nframe=   46 fps=1.2 q=40.6 size=     256KiB time=00:00:00.36 bitrate=5720.5kbits/s speed=0.00938x elapsed=0:00:39.08    \nframe=   47 fps=1.2 q=34.9 size=     256KiB time=00:00:00.37 bitrate=5593.3kbits/s speed=0.00947x elapsed=0:00:39.59    \nframe=   48 fps=1.2 q=38.2 size=     256KiB time=00:00:00.38 bitrate=5471.8kbits/s speed=0.00956x elapsed=0:00:40.11    \nframe=   48 fps=1.2 q=38.2 size=     256KiB time=00:00:00.38 bitrate=5471.8kbits/s speed=0.00944x elapsed=0:00:40.62    \nframe=   49 fps=1.2 q=40.6 size=     256KiB time=00:00:00.39 bitrate=5355.3kbits/s speed=0.00952x elapsed=0:00:41.15    \nframe=   50 fps=1.2 q=40.6 size=     256KiB time=00:00:00.40 bitrate=5243.8kbits/s speed=0.00959x elapsed=0:00:41.69    \nframe=   50 fps=1.2 q=40.6 size=     256KiB time=00:00:00.40 bitrate=5243.8kbits/s speed=0.00947x elapsed=0:00:42.21    \nframe=   51 fps=1.2 q=34.9 size=     256KiB time=00:00:00.40 bitrate=5136.7kbits/s speed=0.00955x elapsed=0:00:42.73    \nframe=   52 fps=1.2 q=38.2 size=     256KiB time=00:00:00.41 bitrate=5034.0kbits/s speed=0.00963x elapsed=0:00:43.25    \nframe=   53 fps=1.2 q=40.7 size=     256KiB time=00:00:00.42 bitrate=4935.3kbits/s speed=0.00971x elapsed=0:00:43.77    \nframe=   53 fps=1.2 q=40.7 size=     256KiB time=00:00:00.42 bitrate=4935.3kbits/s speed=0.00959x elapsed=0:00:44.31    \nframe=   54 fps=1.2 q=40.8 size=     256KiB time=00:00:00.43 bitrate=4840.4kbits/s speed=0.00967x elapsed=0:00:44.83    \nframe=   54 fps=1.2 q=40.8 size=     256KiB time=00:00:00.43 bitrate=4840.4kbits/s speed=0.00956x elapsed=0:00:45.35    \nframe=   55 fps=1.2 q=35.0 size=     256KiB time=00:00:00.44 bitrate=4749.1kbits/s speed=0.00963x elapsed=0:00:45.86    \nframe=   56 fps=1.2 q=38.3 size=     256KiB time=00:00:00.45 bitrate=4661.1kbits/s speed=0.0097x elapsed=0:00:46.37    \nframe=   57 fps=1.2 q=40.5 size=     256KiB time=00:00:00.45 bitrate=4576.4kbits/s speed=0.00977x elapsed=0:00:46.91    \nframe=   57 fps=1.2 q=40.5 size=     256KiB time=00:00:00.45 bitrate=4576.4kbits/s speed=0.00966x elapsed=0:00:47.42    \nframe=   59 fps=1.2 q=35.2 size=     256KiB time=00:00:00.47 bitrate=4415.8kbits/s speed=0.00991x elapsed=0:00:47.95    \nframe=   59 fps=1.2 q=35.2 size=     256KiB time=00:00:00.47 bitrate=4415.8kbits/s speed=0.0098x elapsed=0:00:48.47    \nframe=   60 fps=1.2 q=38.0 size=     256KiB time=00:00:00.48 bitrate=4339.7kbits/s speed=0.00986x elapsed=0:00:49.02    \nframe=   60 fps=1.2 q=38.0 size=     256KiB time=00:00:00.48 bitrate=4339.7kbits/s speed=0.00975x elapsed=0:00:49.55    \nframe=   61 fps=1.2 q=41.0 size=     256KiB time=00:00:00.49 bitrate=4266.1kbits/s speed=0.00981x elapsed=0:00:50.09    \nframe=   62 fps=1.2 q=41.2 size=     256KiB time=00:00:00.50 bitrate=4195.0kbits/s speed=0.00988x elapsed=0:00:50.62    \nframe=   62 fps=1.2 q=41.2 size=     256KiB time=00:00:00.50 bitrate=4195.0kbits/s speed=0.00977x elapsed=0:00:51.15    \nframe=   63 fps=1.2 q=35.1 size=     256KiB time=00:00:00.50 bitrate=4126.2kbits/s speed=0.00983x elapsed=0:00:51.69    \nframe=   64 fps=1.2 q=38.6 size=     512KiB time=00:00:00.51 bitrate=8118.7kbits/s speed=0.0099x elapsed=0:00:52.21    \nframe=   64 fps=1.2 q=38.6 size=     512KiB time=00:00:00.51 bitrate=8118.7kbits/s speed=0.0098x elapsed=0:00:52.73    \nframe=   64 fps=1.2 q=38.6 size=     512KiB time=00:00:00.51 bitrate=8118.7kbits/s speed=0.0097x elapsed=0:00:53.25    \nframe=   65 fps=1.2 q=41.4 size=     512KiB time=00:00:00.52 bitrate=7989.8kbits/s speed=0.00976x elapsed=0:00:53.80    \nframe=   66 fps=1.2 q=41.2 size=     512KiB time=00:00:00.53 bitrate=7865.0kbits/s speed=0.00982x elapsed=0:00:54.33    \nframe=   66 fps=1.2 q=41.2 size=     512KiB time=00:00:00.53 bitrate=7865.0kbits/s speed=0.00972x elapsed=0:00:54.86    \nframe=   67 fps=1.2 q=35.1 size=     512KiB time=00:00:00.54 bitrate=7744.0kbits/s speed=0.00978x elapsed=0:00:55.38    \nframe=   68 fps=1.2 q=38.3 size=     512KiB time=00:00:00.55 bitrate=7626.6kbits/s speed=0.00984x elapsed=0:00:55.89    \nframe=   69 fps=1.2 q=41.1 size=     512KiB time=00:00:00.55 bitrate=7512.8kbits/s speed=0.00989x elapsed=0:00:56.44    \nframe=   69 fps=1.2 q=41.1 size=     512KiB time=00:00:00.55 bitrate=7512.8kbits/s speed=0.0098x elapsed=0:00:56.98    \nframe=   70 fps=1.2 q=41.2 size=     512KiB time=00:00:00.56 bitrate=7402.3kbits/s speed=0.00986x elapsed=0:00:57.49    \nframe=   70 fps=1.2 q=41.2 size=     512KiB time=00:00:00.56 bitrate=7402.3kbits/s speed=0.00976x elapsed=0:00:58.04    \nframe=   71 fps=1.2 q=35.3 size=     512KiB time=00:00:00.57 bitrate=7295.1kbits/s speed=0.00981x elapsed=0:00:58.58    \nframe=   72 fps=1.2 q=38.7 size=     512KiB time=00:00:00.58 bitrate=7190.8kbits/s speed=0.00987x elapsed=0:00:59.09    \nframe=   72 fps=1.2 q=38.7 size=     512KiB time=00:00:00.58 bitrate=7190.8kbits/s speed=0.00978x elapsed=0:00:59.61    \nframe=   73 fps=1.2 q=41.0 size=     512KiB time=00:00:00.59 bitrate=7089.6kbits/s speed=0.00984x elapsed=0:01:00.13    \nframe=   73 fps=1.2 q=41.0 size=     512KiB time=00:00:00.59 bitrate=7089.6kbits/s speed=0.00976x elapsed=0:01:00.64    \nframe=   74 fps=1.2 q=41.4 size=     512KiB time=00:00:00.60 bitrate=6991.1kbits/s speed=0.00981x elapsed=0:01:01.17    \nframe=   76 fps=1.2 q=38.4 size=     512KiB time=00:00:00.61 bitrate=6802.1kbits/s speed=0.01x elapsed=0:01:01.68    \nframe=   76 fps=1.2 q=38.4 size=     512KiB time=00:00:00.61 bitrate=6802.1kbits/s speed=0.00991x elapsed=0:01:02.21    \nframe=   77 fps=1.2 q=41.2 size=     512KiB time=00:00:00.62 bitrate=6711.4kbits/s speed=0.00996x elapsed=0:01:02.72    \nframe=   77 fps=1.2 q=41.2 size=     512KiB time=00:00:00.62 bitrate=6711.4kbits/s speed=0.00988x elapsed=0:01:03.24    \nframe=   78 fps=1.2 q=41.2 size=     512KiB time=00:00:00.63 bitrate=6623.1kbits/s speed=0.00993x elapsed=0:01:03.76    \nframe=   79 fps=1.2 q=35.2 size=     512KiB time=00:00:00.64 bitrate=6537.1kbits/s speed=0.00998x elapsed=0:01:04.29    \nframe=   80 fps=1.2 q=38.8 size=     512KiB time=00:00:00.65 bitrate=6453.3kbits/s speed=0.01x elapsed=0:01:04.81    \nframe=   80 fps=1.2 q=38.8 size=     512KiB time=00:00:00.65 bitrate=6453.3kbits/s speed=0.00995x elapsed=0:01:05.35    \nframe=   80 fps=1.2 q=38.8 size=     512KiB time=00:00:00.65 bitrate=6453.3kbits/s speed=0.00987x elapsed=0:01:05.88    \nframe=   81 fps=1.2 q=41.2 size=     512KiB time=00:00:00.65 bitrate=6371.6kbits/s speed=0.00991x elapsed=0:01:06.41    \nframe=   82 fps=1.2 q=41.2 size=     512KiB time=00:00:00.66 bitrate=6292.0kbits/s speed=0.00996x elapsed=0:01:06.93    \nframe=   82 fps=1.2 q=41.2 size=     512KiB time=00:00:00.66 bitrate=6292.0kbits/s speed=0.00988x elapsed=0:01:07.44    \nframe=   83 fps=1.2 q=35.3 size=     512KiB time=00:00:00.67 bitrate=6214.3kbits/s speed=0.00993x elapsed=0:01:07.95    \nframe=   84 fps=1.2 q=38.6 size=     512KiB time=00:00:00.68 bitrate=6138.5kbits/s speed=0.00998x elapsed=0:01:08.47    \nframe=   84 fps=1.2 q=38.6 size=     512KiB time=00:00:00.68 bitrate=6138.5kbits/s speed=0.00991x elapsed=0:01:08.98    \nframe=   85 fps=1.2 q=41.2 size=     512KiB time=00:00:00.69 bitrate=6064.6kbits/s speed=0.00995x elapsed=0:01:09.52    \nframe=   86 fps=1.2 q=41.2 size=     512KiB time=00:00:00.70 bitrate=5992.4kbits/s speed=0.00999x elapsed=0:01:10.04    \nframe=   86 fps=1.2 q=41.2 size=     512KiB time=00:00:00.70 bitrate=5992.4kbits/s speed=0.00991x elapsed=0:01:10.61    \nframe=   88 fps=1.2 q=38.8 size=     512KiB time=00:00:00.71 bitrate=5853.0kbits/s speed=0.0101x elapsed=0:01:11.15    \nframe=   88 fps=1.2 q=38.8 size=     512KiB time=00:00:00.71 bitrate=5853.0kbits/s speed=0.01x elapsed=0:01:11.69    \nframe=   89 fps=1.2 q=41.2 size=     512KiB time=00:00:00.72 bitrate=5785.7kbits/s speed=0.01x elapsed=0:01:12.25    \nframe=   90 fps=1.2 q=41.3 size=     512KiB time=00:00:00.73 bitrate=5720.0kbits/s speed=0.0101x elapsed=0:01:12.76    \nframe=   90 fps=1.2 q=41.3 size=     512KiB time=00:00:00.73 bitrate=5720.0kbits/s speed=0.01x elapsed=0:01:13.28    \nframe=   91 fps=1.2 q=35.2 size=     512KiB time=00:00:00.74 bitrate=5655.7kbits/s speed=0.01x elapsed=0:01:13.79    \nframe=   91 fps=1.2 q=35.2 size=     512KiB time=00:00:00.74 bitrate=5655.7kbits/s speed=0.00998x elapsed=0:01:14.31    \nframe=   92 fps=1.2 q=38.3 size=     512KiB time=00:00:00.75 bitrate=5592.9kbits/s speed=0.01x elapsed=0:01:14.83    \nframe=   92 fps=1.2 q=38.3 size=     512KiB time=00:00:00.75 bitrate=5592.9kbits/s speed=0.00995x elapsed=0:01:15.38    \nframe=   93 fps=1.2 q=41.3 size=     512KiB time=00:00:00.75 bitrate=5531.4kbits/s speed=0.00999x elapsed=0:01:15.92    \nframe=   94 fps=1.2 q=41.2 size=     512KiB time=00:00:00.76 bitrate=5471.3kbits/s speed=0.01x elapsed=0:01:16.43    \nframe=   94 fps=1.2 q=41.2 size=     512KiB time=00:00:00.76 bitrate=5471.3kbits/s speed=0.00996x elapsed=0:01:16.97    \nframe=   96 fps=1.2 q=38.0 size=     768KiB time=00:00:00.78 bitrate=8032.1kbits/s speed=0.0101x elapsed=0:01:17.49    \nframe=   96 fps=1.2 q=38.0 size=     768KiB time=00:00:00.78 bitrate=8032.1kbits/s speed=0.01x elapsed=0:01:18.03    \nframe=   97 fps=1.2 q=41.5 size=     768KiB time=00:00:00.79 bitrate=7947.5kbits/s speed=0.0101x elapsed=0:01:18.56    \nframe=   97 fps=1.2 q=41.5 size=     768KiB time=00:00:00.79 bitrate=7947.5kbits/s speed=0.01x elapsed=0:01:19.09    \nframe=   98 fps=1.2 q=41.5 size=     768KiB time=00:00:00.80 bitrate=7864.8kbits/s speed=0.01x elapsed=0:01:19.64    \nframe=   99 fps=1.2 q=34.9 size=     768KiB time=00:00:00.80 bitrate=7783.7kbits/s speed=0.0101x elapsed=0:01:20.15    \nframe=  100 fps=1.2 q=38.1 size=     768KiB time=00:00:00.81 bitrate=7704.3kbits/s speed=0.0101x elapsed=0:01:20.71    \nframe=  100 fps=1.2 q=38.1 size=     768KiB time=00:00:00.81 bitrate=7704.3kbits/s speed=0.0101x elapsed=0:01:21.24    \nframe=  101 fps=1.2 q=41.2 size=     768KiB time=00:00:00.82 bitrate=7626.4kbits/s speed=0.0101x elapsed=0:01:21.77    \nframe=  101 fps=1.2 q=41.2 size=     768KiB time=00:00:00.82 bitrate=7626.4kbits/s speed=0.01x elapsed=0:01:22.29    \nframe=  102 fps=1.2 q=41.0 size=     768KiB time=00:00:00.83 bitrate=7550.2kbits/s speed=0.0101x elapsed=0:01:22.83    \nframe=  103 fps=1.2 q=34.9 size=     768KiB time=00:00:00.84 bitrate=7475.4kbits/s speed=0.0101x elapsed=0:01:23.37    \nframe=  103 fps=1.2 q=34.9 size=     768KiB time=00:00:00.84 bitrate=7475.4kbits/s speed=0.01x elapsed=0:01:23.89    \nframe=  104 fps=1.2 q=38.3 size=     768KiB time=00:00:00.85 bitrate=7402.1kbits/s speed=0.0101x elapsed=0:01:24.45    \nframe=  104 fps=1.2 q=38.3 size=     768KiB time=00:00:00.85 bitrate=7402.1kbits/s speed=0.01x elapsed=0:01:24.97    \nframe=  105 fps=1.2 q=41.2 size=     768KiB time=00:00:00.85 bitrate=7330.3kbits/s speed=0.01x elapsed=0:01:25.50    \nframe=  106 fps=1.2 q=41.2 size=     768KiB time=00:00:00.86 bitrate=7259.8kbits/s speed=0.0101x elapsed=0:01:26.03    \nframe=  107 fps=1.2 q=35.1 size=     768KiB time=00:00:00.87 bitrate=7190.6kbits/s speed=0.0101x elapsed=0:01:26.58    \nframe=  108 fps=1.2 q=38.2 size=     768KiB time=00:00:00.88 bitrate=7122.8kbits/s speed=0.0101x elapsed=0:01:27.10    \nframe=  108 fps=1.2 q=38.2 size=     768KiB time=00:00:00.88 bitrate=7122.8kbits/s speed=0.0101x elapsed=0:01:27.64    \nframe=  109 fps=1.2 q=40.9 size=     768KiB time=00:00:00.89 bitrate=7056.2kbits/s speed=0.0101x elapsed=0:01:28.16    \nframe=  109 fps=1.2 q=40.9 size=     768KiB time=00:00:00.89 bitrate=7056.2kbits/s speed=0.0101x elapsed=0:01:28.70    \nframe=  110 fps=1.2 q=40.9 size=     768KiB time=00:00:00.90 bitrate=6990.9kbits/s speed=0.0101x elapsed=0:01:29.24    \nframe=  111 fps=1.2 q=35.0 size=     768KiB time=00:00:00.90 bitrate=6926.8kbits/s speed=0.0101x elapsed=0:01:29.75    \nframe=  111 fps=1.2 q=35.0 size=     768KiB time=00:00:00.90 bitrate=6926.8kbits/s speed=0.0101x elapsed=0:01:30.26    \nframe=  111 fps=1.2 q=35.0 size=     768KiB time=00:00:00.90 bitrate=6926.8kbits/s speed=0.01x elapsed=0:01:30.78    \nframe=  112 fps=1.2 q=38.1 size=     768KiB time=00:00:00.91 bitrate=6863.8kbits/s speed=0.01x elapsed=0:01:31.29    \nframe=  112 fps=1.2 q=38.1 size=     768KiB time=00:00:00.91 bitrate=6863.8kbits/s speed=0.00998x elapsed=0:01:31.81    \nframe=  113 fps=1.2 q=41.0 size=     768KiB time=00:00:00.92 bitrate=6802.0kbits/s speed=0.01x elapsed=0:01:32.36    \nframe=  114 fps=1.2 q=41.0 size=     768KiB time=00:00:00.93 bitrate=6741.2kbits/s speed=0.01x elapsed=0:01:32.88    \nframe=  114 fps=1.2 q=41.0 size=     768KiB time=00:00:00.93 bitrate=6741.2kbits/s speed=0.00999x elapsed=0:01:33.41    \nframe=  115 fps=1.2 q=34.9 size=     768KiB time=00:00:00.94 bitrate=6681.6kbits/s speed=0.01x elapsed=0:01:33.94    \nframe=  116 fps=1.2 q=37.9 size=     768KiB time=00:00:00.95 bitrate=6623.0kbits/s speed=0.0101x elapsed=0:01:34.45    \nframe=  117 fps=1.2 q=40.7 size=     768KiB time=00:00:00.95 bitrate=6565.4kbits/s speed=0.0101x elapsed=0:01:34.99    \nframe=  117 fps=1.2 q=40.7 size=     768KiB time=00:00:00.95 bitrate=6565.4kbits/s speed=0.01x elapsed=0:01:35.52    \nframe=  118 fps=1.2 q=41.1 size=     768KiB time=00:00:00.96 bitrate=6508.8kbits/s speed=0.0101x elapsed=0:01:36.04    \nframe=  118 fps=1.2 q=41.1 size=     768KiB time=00:00:00.96 bitrate=6508.8kbits/s speed=0.01x elapsed=0:01:36.60    \nframe=  120 fps=1.2 q=38.1 size=     768KiB time=00:00:00.98 bitrate=6398.5kbits/s speed=0.0101x elapsed=0:01:37.13    \nframe=  120 fps=1.2 q=38.1 size=     768KiB time=00:00:00.98 bitrate=6398.5kbits/s speed=0.0101x elapsed=0:01:37.66    \nframe=  121 fps=1.2 q=40.9 size=     768KiB time=00:00:00.98 bitrate=6398.5kbits/s speed=0.01x elapsed=0:01:38.20    \nframe=  121 fps=1.2 q=40.9 size=     768KiB time=00:00:00.99 bitrate=6344.7kbits/s speed=0.01x elapsed=0:01:38.74    \nframe=  122 fps=1.2 q=41.0 size=     768KiB time=00:00:01.00 bitrate=6291.8kbits/s speed=0.0101x elapsed=0:01:39.25    \nframe=  122 fps=1.2 q=41.0 size=     768KiB time=00:00:01.00 bitrate=6291.8kbits/s speed=0.01x elapsed=0:01:39.77    \nframe=  123 fps=1.2 q=34.8 size=     768KiB time=00:00:01.00 bitrate=6239.8kbits/s speed=0.0101x elapsed=0:01:40.28    \nframe=  124 fps=1.2 q=37.9 size=     768KiB time=00:00:01.01 bitrate=6188.7kbits/s speed=0.0101x elapsed=0:01:40.81    \nframe=  124 fps=1.2 q=37.9 size=     768KiB time=00:00:01.01 bitrate=6188.7kbits/s speed=0.01x elapsed=0:01:41.33    \nframe=  125 fps=1.2 q=40.9 size=     768KiB time=00:00:01.02 bitrate=6138.3kbits/s speed=0.0101x elapsed=0:01:41.85    \nframe=  125 fps=1.2 q=40.9 size=     768KiB time=00:00:01.02 bitrate=6138.3kbits/s speed=0.01x elapsed=0:01:42.36    \nframe=  126 fps=1.2 q=40.8 size=     768KiB time=00:00:01.03 bitrate=6088.8kbits/s speed=0.01x elapsed=0:01:42.88    \nframe=  127 fps=1.2 q=34.7 size=     768KiB time=00:00:01.04 bitrate=6040.1kbits/s speed=0.0101x elapsed=0:01:43.41    \nframe=  128 fps=1.2 q=38.1 size=    1024KiB time=00:00:01.05 bitrate=7989.5kbits/s speed=0.0101x elapsed=0:01:43.92    \nframe=  128 fps=1.2 q=38.1 size=    1024KiB time=00:00:01.05 bitrate=7989.5kbits/s speed=0.0101x elapsed=0:01:44.46    \nframe=  129 fps=1.2 q=40.5 size=    1024KiB time=00:00:01.05 bitrate=7926.6kbits/s speed=0.0101x elapsed=0:01:44.99    \nframe=  129 fps=1.2 q=40.5 size=    1024KiB time=00:00:01.05 bitrate=7926.6kbits/s speed=0.01x elapsed=0:01:45.54    \nframe=  130 fps=1.2 q=40.8 size=    1024KiB time=00:00:01.06 bitrate=7864.6kbits/s speed=0.0101x elapsed=0:01:46.07    \nframe=  131 fps=1.2 q=34.7 size=    1024KiB time=00:00:01.07 bitrate=7803.7kbits/s speed=0.0101x elapsed=0:01:46.59    \nframe=  131 fps=1.2 q=34.7 size=    1024KiB time=00:00:01.07 bitrate=7803.7kbits/s speed=0.01x elapsed=0:01:47.13    \nframe=  132 fps=1.2 q=38.2 size=    1024KiB time=00:00:01.08 bitrate=7743.7kbits/s speed=0.0101x elapsed=0:01:47.64    \nframe=  132 fps=1.2 q=38.2 size=    1024KiB time=00:00:01.08 bitrate=7743.7kbits/s speed=0.01x elapsed=0:01:48.17    \nframe=  133 fps=1.2 q=40.8 size=    1024KiB time=00:00:01.09 bitrate=7684.5kbits/s speed=0.01x elapsed=0:01:48.70    \nframe=  134 fps=1.2 q=40.7 size=    1024KiB time=00:00:01.10 bitrate=7626.3kbits/s speed=0.0101x elapsed=0:01:49.23    \nframe=  135 fps=1.2 q=34.8 size=    1024KiB time=00:00:01.10 bitrate=7569.0kbits/s speed=0.0101x elapsed=0:01:49.75    \nframe=  136 fps=1.2 q=38.0 size=    1024KiB time=00:00:01.11 bitrate=7512.5kbits/s speed=0.0101x elapsed=0:01:50.26    \nframe=  136 fps=1.2 q=38.0 size=    1024KiB time=00:00:01.11 bitrate=7512.5kbits/s speed=0.0101x elapsed=0:01:50.79    \nframe=  136 fps=1.2 q=38.0 size=    1024KiB time=00:00:01.11 bitrate=7512.5kbits/s speed=0.01x elapsed=0:01:51.34    \nframe=  137 fps=1.2 q=40.9 size=    1024KiB time=00:00:01.12 bitrate=7456.9kbits/s speed=0.0101x elapsed=0:01:51.84    \nframe=  138 fps=1.2 q=40.9 size=    1024KiB time=00:00:01.13 bitrate=7402.0kbits/s speed=0.0101x elapsed=0:01:52.37    \nframe=  139 fps=1.2 q=34.6 size=    1024KiB time=00:00:01.14 bitrate=7348.0kbits/s speed=0.0101x elapsed=0:01:52.89    \nframe=  139 fps=1.2 q=34.6 size=    1024KiB time=00:00:01.14 bitrate=7348.0kbits/s speed=0.0101x elapsed=0:01:53.41    \nframe=  140 fps=1.2 q=38.2 size=    1024KiB time=00:00:01.15 bitrate=7294.7kbits/s speed=0.0101x elapsed=0:01:53.92    \nframe=  142 fps=1.2 q=41.1 size=    1024KiB time=00:00:01.16 bitrate=7190.5kbits/s speed=0.0102x elapsed=0:01:54.44    \nframe=  143 fps=1.2 q=34.6 size=    1024KiB time=00:00:01.17 bitrate=7139.5kbits/s speed=0.0102x elapsed=0:01:54.95    \nframe=  144 fps=1.2 q=37.9 size=    1024KiB time=00:00:01.18 bitrate=7089.3kbits/s speed=0.0102x elapsed=0:01:55.46    \nframe=  146 fps=1.3 q=40.7 size=    1024KiB time=00:00:01.20 bitrate=6990.8kbits/s speed=0.0103x elapsed=0:01:55.98    \nframe=  147 fps=1.3 q=34.6 size=    1024KiB time=00:00:01.20 bitrate=6942.6kbits/s speed=0.0104x elapsed=0:01:56.49    \nframe=  149 fps=1.3 q=40.9 size=    1024KiB time=00:00:01.22 bitrate=6848.1kbits/s speed=0.0105x elapsed=0:01:57.01    \nframe=  150 fps=1.3 q=40.9 size=    1024KiB time=00:00:01.23 bitrate=6801.9kbits/s speed=0.0105x elapsed=0:01:57.54    \nframe=  152 fps=1.3 q=38.2 size=    1024KiB time=00:00:01.25 bitrate=6711.2kbits/s speed=0.0106x elapsed=0:01:58.05    \nframe=  154 fps=1.3 q=40.9 size=    1024KiB time=00:00:01.26 bitrate=6622.9kbits/s speed=0.0107x elapsed=0:01:58.56    \nframe=  156 fps=1.3 q=38.5 size=    1024KiB time=00:00:01.28 bitrate=6536.9kbits/s speed=0.0108x elapsed=0:01:59.08    \nframe=  158 fps=1.3 q=40.8 size=    1024KiB time=00:00:01.30 bitrate=6453.0kbits/s speed=0.0109x elapsed=0:01:59.59    \nframe=  160 fps=1.3 q=38.2 size=    1024KiB time=00:00:01.31 bitrate=6371.4kbits/s speed=0.011x elapsed=0:02:00.12    \nframe=  161 fps=1.3 q=40.7 size=    1280KiB time=00:00:01.32 bitrate=7914.0kbits/s speed=0.011x elapsed=0:02:00.62    \nframe=  163 fps=1.3 q=34.6 size=    1280KiB time=00:00:01.34 bitrate=7815.7kbits/s speed=0.0111x elapsed=0:02:01.14    \nframe=  165 fps=1.4 q=40.8 size=    1280KiB time=00:00:01.35 bitrate=7719.8kbits/s speed=0.0112x elapsed=0:02:01.65    \nframe=  166 fps=1.4 q=40.7 size=    1280KiB time=00:00:01.36 bitrate=7672.8kbits/s speed=0.0112x elapsed=0:02:02.18    \nframe=  168 fps=1.4 q=38.5 size=    1280KiB time=00:00:01.38 bitrate=7580.3kbits/s speed=0.0113x elapsed=0:02:02.69    \nframe=  170 fps=1.4 q=40.8 size=    1280KiB time=00:00:01.40 bitrate=7490.1kbits/s speed=0.0114x elapsed=0:02:03.21    \nframe=  172 fps=1.4 q=38.3 size=    1280KiB time=00:00:01.41 bitrate=7402.0kbits/s speed=0.0115x elapsed=0:02:03.72    \nframe=  174 fps=1.4 q=40.6 size=    1280KiB time=00:00:01.43 bitrate=7315.9kbits/s speed=0.0115x elapsed=0:02:04.23    \nframe=  176 fps=1.4 q=38.1 size=    1280KiB time=00:00:01.45 bitrate=7231.8kbits/s speed=0.0116x elapsed=0:02:04.75    \nframe=  177 fps=1.4 q=40.8 size=    1280KiB time=00:00:01.45 bitrate=7190.5kbits/s speed=0.0116x elapsed=0:02:05.26    \nframe=  179 fps=1.4 q=34.6 size=    1280KiB time=00:00:01.47 bitrate=7109.2kbits/s speed=0.0117x elapsed=0:02:05.79    \nframe=  181 fps=1.4 q=40.8 size=    1280KiB time=00:00:01.49 bitrate=7029.8kbits/s speed=0.0118x elapsed=0:02:06.30    \nframe=  183 fps=1.4 q=34.7 size=    1280KiB time=00:00:01.50 bitrate=6952.1kbits/s speed=0.0119x elapsed=0:02:06.82    \nframe=  185 fps=1.5 q=41.0 size=    1280KiB time=00:00:01.52 bitrate=6876.1kbits/s speed=0.012x elapsed=0:02:07.33    \nframe=  187 fps=1.5 q=34.7 size=    1280KiB time=00:00:01.54 bitrate=6801.8kbits/s speed=0.0121x elapsed=0:02:07.84    \nframe=  188 fps=1.5 q=38.2 size=    1280KiB time=00:00:01.55 bitrate=6765.2kbits/s speed=0.0121x elapsed=0:02:08.36    \nframe=  190 fps=1.5 q=40.8 size=    1280KiB time=00:00:01.56 bitrate=6693.3kbits/s speed=0.0122x elapsed=0:02:08.87    \nframe=  192 fps=1.5 q=38.0 size=    1536KiB time=00:00:01.58 bitrate=7947.3kbits/s speed=0.0122x elapsed=0:02:09.39    \nframe=  194 fps=1.5 q=40.9 size=    1536KiB time=00:00:01.60 bitrate=7864.5kbits/s speed=0.0123x elapsed=0:02:09.90    \nframe=  196 fps=1.5 q=38.1 size=    1536KiB time=00:00:01.61 bitrate=7783.5kbits/s speed=0.0124x elapsed=0:02:10.42    \nframe=  197 fps=1.5 q=40.5 size=    1536KiB time=00:00:01.62 bitrate=7743.5kbits/s speed=0.0124x elapsed=0:02:10.94    \nframe=  199 fps=1.5 q=35.1 size=    1536KiB time=00:00:01.64 bitrate=7664.9kbits/s speed=0.0125x elapsed=0:02:11.45    \nframe=  201 fps=1.5 q=40.7 size=    1536KiB time=00:00:01.65 bitrate=7587.9kbits/s speed=0.0126x elapsed=0:02:11.96    \nframe=  202 fps=1.5 q=40.6 size=    1536KiB time=00:00:01.66 bitrate=7550.0kbits/s speed=0.0126x elapsed=0:02:12.49    \nframe=  204 fps=1.5 q=38.1 size=    1536KiB time=00:00:01.68 bitrate=7475.2kbits/s speed=0.0127x elapsed=0:02:13.01    \nframe=  206 fps=1.5 q=40.6 size=    1536KiB time=00:00:01.70 bitrate=7401.9kbits/s speed=0.0127x elapsed=0:02:13.52    \nframe=  208 fps=1.6 q=37.8 size=    1536KiB time=00:00:01.71 bitrate=7330.1kbits/s speed=0.0128x elapsed=0:02:14.03    \nframe=  210 fps=1.6 q=40.9 size=    1536KiB time=00:00:01.73 bitrate=7259.6kbits/s speed=0.0129x elapsed=0:02:14.55    \nframe=  212 fps=1.6 q=38.3 size=    1536KiB time=00:00:01.75 bitrate=7190.4kbits/s speed=0.013x elapsed=0:02:15.06    \nframe=  213 fps=1.6 q=40.7 size=    1536KiB time=00:00:01.75 bitrate=7156.4kbits/s speed=0.013x elapsed=0:02:15.57    \nframe=  215 fps=1.6 q=35.0 size=    1536KiB time=00:00:01.77 bitrate=7089.2kbits/s speed=0.013x elapsed=0:02:16.09    \nframe=  217 fps=1.6 q=40.8 size=    1536KiB time=00:00:01.79 bitrate=7023.2kbits/s speed=0.0131x elapsed=0:02:16.62    \nframe=  219 fps=1.6 q=34.9 size=    1536KiB time=00:00:01.80 bitrate=6958.5kbits/s speed=0.0132x elapsed=0:02:17.13    \nframe=  221 fps=1.6 q=41.3 size=    1792KiB time=00:00:01.82 bitrate=8044.1kbits/s speed=0.0133x elapsed=0:02:17.64    \nframe=  222 fps=1.6 q=41.2 size=    1792KiB time=00:00:01.83 bitrate=8007.5kbits/s speed=0.0133x elapsed=0:02:18.16    \nframe=  224 fps=1.6 q=38.1 size=    1792KiB time=00:00:01.85 bitrate=7935.4kbits/s speed=0.0133x elapsed=0:02:18.67    \nframe=  226 fps=1.6 q=41.0 size=    1792KiB time=00:00:01.86 bitrate=7864.5kbits/s speed=0.0134x elapsed=0:02:19.18    \nframe=  228 fps=1.6 q=38.1 size=    1792KiB time=00:00:01.88 bitrate=7794.9kbits/s speed=0.0135x elapsed=0:02:19.70    \nframe=  230 fps=1.6 q=41.0 size=    1792KiB time=00:00:01.90 bitrate=7726.5kbits/s speed=0.0135x elapsed=0:02:20.24    \nframe=  232 fps=1.6 q=38.3 size=    1792KiB time=00:00:01.91 bitrate=7659.3kbits/s speed=0.0136x elapsed=0:02:20.75    \nframe=  234 fps=1.7 q=41.3 size=    1792KiB time=00:00:01.93 bitrate=7593.3kbits/s speed=0.0137x elapsed=0:02:21.27    \nframe=  236 fps=1.7 q=38.4 size=    1792KiB time=00:00:01.95 bitrate=7528.4kbits/s speed=0.0138x elapsed=0:02:21.78    \nframe=  237 fps=1.7 q=41.3 size=    1792KiB time=00:00:01.95 bitrate=7496.4kbits/s speed=0.0138x elapsed=0:02:22.31    \nframe=  240 fps=1.7 q=38.1 size=    1792KiB time=00:00:01.98 bitrate=7401.9kbits/s speed=0.0139x elapsed=0:02:22.82    \nframe=  242 fps=1.7 q=41.1 size=    1792KiB time=00:00:02.00 bitrate=7340.2kbits/s speed=0.014x elapsed=0:02:23.34    \nframe=  243 fps=1.7 q=35.3 size=    1792KiB time=00:00:02.00 bitrate=7309.8kbits/s speed=0.014x elapsed=0:02:23.87    \nframe=  246 fps=1.7 q=41.2 size=    1792KiB time=00:00:02.03 bitrate=7219.9kbits/s speed=0.0141x elapsed=0:02:24.38    \nframe=  247 fps=1.7 q=35.4 size=    1792KiB time=00:00:02.04 bitrate=7190.4kbits/s speed=0.0141x elapsed=0:02:24.90    \nframe=  249 fps=1.7 q=41.0 size=    2048KiB time=00:00:02.05 bitrate=8151.0kbits/s speed=0.0142x elapsed=0:02:25.41    \nframe=  250 fps=1.7 q=41.1 size=    2048KiB time=00:00:02.06 bitrate=8118.2kbits/s speed=0.0142x elapsed=0:02:25.93    \nframe=  252 fps=1.7 q=35.1 size=    2048KiB time=00:00:02.08 bitrate=8053.2kbits/s speed=0.0142x elapsed=0:02:26.46    \nframe=  254 fps=1.7 q=40.9 size=    2048KiB time=00:00:02.10 bitrate=7989.3kbits/s speed=0.0143x elapsed=0:02:26.97    \nframe=  256 fps=1.7 q=40.8 size=    2048KiB time=00:00:02.11 bitrate=7926.4kbits/s speed=0.0144x elapsed=0:02:27.49    \nframe=  258 fps=1.7 q=38.0 size=    2048KiB time=00:00:02.13 bitrate=7864.5kbits/s speed=0.0144x elapsed=0:02:28.00    \nframe=  260 fps=1.8 q=40.7 size=    2048KiB time=00:00:02.15 bitrate=7803.5kbits/s speed=0.0145x elapsed=0:02:28.52    \nframe=  262 fps=1.8 q=36.2 size=    2048KiB time=00:00:02.16 bitrate=7743.5kbits/s speed=0.0145x elapsed=0:02:29.03    \nframe=  264 fps=1.8 q=40.4 size=    2048KiB time=00:00:02.18 bitrate=7684.4kbits/s speed=0.0146x elapsed=0:02:29.54    \nframe=  266 fps=1.8 q=35.0 size=    2048KiB time=00:00:02.20 bitrate=7626.2kbits/s speed=0.0147x elapsed=0:02:30.06    \nframe=  268 fps=1.8 q=41.1 size=    2048KiB time=00:00:02.21 bitrate=7568.8kbits/s speed=0.0147x elapsed=0:02:30.58    \nframe=  270 fps=1.8 q=35.1 size=    2048KiB time=00:00:02.23 bitrate=7512.3kbits/s speed=0.0148x elapsed=0:02:31.10    \nframe=  272 fps=1.8 q=41.0 size=    2048KiB time=00:00:02.25 bitrate=7456.7kbits/s speed=0.0148x elapsed=0:02:31.61    \nframe=  275 fps=1.8 q=37.7 size=    2304KiB time=00:00:02.27 bitrate=8296.6kbits/s speed=0.015x elapsed=0:02:32.12    \nframe=  277 fps=1.8 q=41.0 size=    2304KiB time=00:00:02.29 bitrate=8236.2kbits/s speed=0.015x elapsed=0:02:32.64    \nframe=  280 fps=1.8 q=41.1 size=    2304KiB time=00:00:02.31 bitrate=8147.4kbits/s speed=0.0151x elapsed=0:02:33.16    \nframe=  283 fps=1.8 q=37.9 size=    2304KiB time=00:00:02.34 bitrate=8060.4kbits/s speed=0.0152x elapsed=0:02:33.67    \nframe=  286 fps=1.9 q=35.1 size=    2304KiB time=00:00:02.36 bitrate=7975.2kbits/s speed=0.0153x elapsed=0:02:34.19    \nframe=  290 fps=1.9 q=35.2 size=    2304KiB time=00:00:02.40 bitrate=7864.5kbits/s speed=0.0155x elapsed=0:02:34.70    \nframe=  293 fps=1.9 q=41.3 size=    2304KiB time=00:00:02.42 bitrate=7783.4kbits/s speed=0.0156x elapsed=0:02:35.22    \nframe=  296 fps=1.9 q=41.3 size=    2304KiB time=00:00:02.45 bitrate=7704.0kbits/s speed=0.0157x elapsed=0:02:35.75    \nframe=  298 fps=1.9 q=35.2 size=    2304KiB time=00:00:02.46 bitrate=7651.9kbits/s speed=0.0158x elapsed=0:02:36.26    \nframe=  302 fps=1.9 q=35.2 size=    2304KiB time=00:00:02.50 bitrate=7549.9kbits/s speed=0.0159x elapsed=0:02:36.79    \nframe=  305 fps=1.9 q=41.2 size=    2560KiB time=00:00:02.52 bitrate=8305.7kbits/s speed=0.0161x elapsed=0:02:37.31    \nframe=  308 fps=2.0 q=41.1 size=    2560KiB time=00:00:02.55 bitrate=8224.3kbits/s speed=0.0162x elapsed=0:02:37.83    \nframe=  310 fps=2.0 q=35.3 size=    2560KiB time=00:00:02.56 bitrate=8170.9kbits/s speed=0.0162x elapsed=0:02:38.35    \nframe=  313 fps=2.0 q=41.5 size=    2560KiB time=00:00:02.59 bitrate=8092.0kbits/s speed=0.0163x elapsed=0:02:38.86    \nframe=  317 fps=2.0 q=42.4 size=    2560KiB time=00:00:02.62 bitrate=7989.3kbits/s speed=0.0165x elapsed=0:02:39.37    \nframe=  319 fps=2.0 q=39.2 size=    2560KiB time=00:00:02.64 bitrate=7938.9kbits/s speed=0.0165x elapsed=0:02:39.88    \nframe=  322 fps=2.0 q=35.6 size=    2560KiB time=00:00:02.66 bitrate=7864.5kbits/s speed=0.0166x elapsed=0:02:40.41    \nframe=  326 fps=2.0 q=35.6 size=    2560KiB time=00:00:02.70 bitrate=7767.4kbits/s speed=0.0168x elapsed=0:02:40.95    \nframe=  329 fps=2.0 q=42.4 size=    2560KiB time=00:00:02.72 bitrate=7696.1kbits/s speed=0.0169x elapsed=0:02:41.46    \nframe=  332 fps=2.0 q=42.4 size=    2816KiB time=00:00:02.75 bitrate=8388.7kbits/s speed=0.017x elapsed=0:02:41.97    \nframe=  335 fps=2.1 q=39.0 size=    2816KiB time=00:00:02.77 bitrate=8313.2kbits/s speed=0.0171x elapsed=0:02:42.49    \nframe=  338 fps=2.1 q=35.9 size=    2816KiB time=00:00:02.80 bitrate=8238.9kbits/s speed=0.0172x elapsed=0:02:43.00    \nframe=  342 fps=2.1 q=35.9 size=    2816KiB time=00:00:02.83 bitrate=8142.0kbits/s speed=0.0173x elapsed=0:02:43.52    \nframe=  345 fps=2.1 q=42.2 size=    2816KiB time=00:00:02.85 bitrate=8070.8kbits/s speed=0.0174x elapsed=0:02:44.03    \nframe=  349 fps=2.1 q=42.3 size=    2816KiB time=00:00:02.89 bitrate=7977.8kbits/s speed=0.0176x elapsed=0:02:44.56    \nframe=  354 fps=2.1 q=35.9 size=    2816KiB time=00:00:02.93 bitrate=7864.4kbits/s speed=0.0178x elapsed=0:02:45.07    \nframe=  359 fps=2.2 q=39.1 size=    2816KiB time=00:00:02.97 bitrate=7754.3kbits/s speed=0.018x elapsed=0:02:45.59    \nframe=  365 fps=2.2 q=42.4 size=    3072KiB time=00:00:03.02 bitrate=8319.4kbits/s speed=0.0182x elapsed=0:02:46.12    \nframe=  370 fps=2.2 q=36.0 size=    3072KiB time=00:00:03.06 bitrate=8206.4kbits/s speed=0.0184x elapsed=0:02:46.62    \nframe=  376 fps=2.2 q=42.5 size=    3072KiB time=00:00:03.11 bitrate=8074.7kbits/s speed=0.0186x elapsed=0:02:47.14    \nframe=  381 fps=2.3 q=42.6 size=    3072KiB time=00:00:03.15 bitrate=7968.2kbits/s speed=0.0188x elapsed=0:02:47.66    \nframe=  387 fps=2.3 q=39.1 size=    3072KiB time=00:00:03.20 bitrate=7844.0kbits/s speed=0.0191x elapsed=0:02:48.17    \nframe=  393 fps=2.3 q=42.5 size=    3328KiB time=00:00:03.25 bitrate=8367.3kbits/s speed=0.0193x elapsed=0:02:48.68    \nframe=  398 fps=2.4 q=35.9 size=    3328KiB time=00:00:03.30 bitrate=8261.6kbits/s speed=0.0195x elapsed=0:02:49.20    \nframe=  404 fps=2.4 q=42.5 size=    3328KiB time=00:00:03.35 bitrate=8138.3kbits/s speed=0.0197x elapsed=0:02:49.72    \nframe=  410 fps=2.4 q=36.3 size=    3328KiB time=00:00:03.40 bitrate=8018.6kbits/s speed=0.02x elapsed=0:02:50.23    \nframe=  416 fps=2.4 q=42.7 size=    3328KiB time=00:00:03.45 bitrate=7902.4kbits/s speed=0.0202x elapsed=0:02:50.75    \nframe=  422 fps=2.5 q=36.2 size=    3584KiB time=00:00:03.50 bitrate=8388.7kbits/s speed=0.0204x elapsed=0:02:51.26    \nframe=  427 fps=2.5 q=39.8 size=    3584KiB time=00:00:03.54 bitrate=8290.0kbits/s speed=0.0206x elapsed=0:02:51.78    \nframe=  433 fps=2.5 q=42.7 size=    3584KiB time=00:00:03.59 bitrate=8174.6kbits/s speed=0.0208x elapsed=0:02:52.30    \nframe=  439 fps=2.5 q=39.8 size=    3584KiB time=00:00:03.64 bitrate=8062.4kbits/s speed=0.0211x elapsed=0:02:52.81    \nframe=  445 fps=2.6 q=42.7 size=    3584KiB time=00:00:03.69 bitrate=7953.2kbits/s speed=0.0213x elapsed=0:02:53.32    \nframe=  450 fps=2.6 q=36.3 size=    3840KiB time=00:00:03.73 bitrate=8426.2kbits/s speed=0.0215x elapsed=0:02:53.84    \nframe=  457 fps=2.6 q=43.7 size=    3840KiB time=00:00:03.79 bitrate=8296.5kbits/s speed=0.0217x elapsed=0:02:54.36    \nframe=  462 fps=2.6 q=36.0 size=    3840KiB time=00:00:03.83 bitrate=8206.3kbits/s speed=0.0219x elapsed=0:02:54.87    \nframe=  468 fps=2.7 q=43.7 size=    3840KiB time=00:00:03.88 bitrate=8100.7kbits/s speed=0.0221x elapsed=0:02:55.40    \nframe=  474 fps=2.7 q=36.2 size=    3840KiB time=00:00:03.93 bitrate=7997.7kbits/s speed=0.0224x elapsed=0:02:55.92    \nframe=  480 fps=2.7 q=43.9 size=    4096KiB time=00:00:03.98 bitrate=8423.8kbits/s speed=0.0226x elapsed=0:02:56.44    \nframe=  486 fps=2.7 q=36.8 size=    4096KiB time=00:00:04.03 bitrate=8319.4kbits/s speed=0.0228x elapsed=0:02:56.95    \nframe=  493 fps=2.8 q=43.7 size=    4096KiB time=00:00:04.09 bitrate=8200.8kbits/s speed=0.0231x elapsed=0:02:57.47    \nframe=  498 fps=2.8 q=35.6 size=    4096KiB time=00:00:04.13 bitrate=8118.1kbits/s speed=0.0232x elapsed=0:02:57.98    \nframe=  505 fps=2.8 q=42.5 size=    4096KiB time=00:00:04.19 bitrate=8005.1kbits/s speed=0.0235x elapsed=0:02:58.49    \nframe=  511 fps=2.9 q=41.0 size=    4352KiB time=00:00:04.24 bitrate=8405.2kbits/s speed=0.0237x elapsed=0:02:59.01    \nframe=  517 fps=2.9 q=42.7 size=    4352KiB time=00:00:04.29 bitrate=8307.2kbits/s speed=0.0239x elapsed=0:02:59.54    \nframe=  522 fps=2.9 q=37.0 size=    4352KiB time=00:00:04.33 bitrate=8227.4kbits/s speed=0.0241x elapsed=0:03:00.06    \nframe=  529 fps=2.9 q=43.3 size=    4352KiB time=00:00:04.39 bitrate=8118.1kbits/s speed=0.0243x elapsed=0:03:00.58    \nframe=  535 fps=3.0 q=40.9 size=    4352KiB time=00:00:04.44 bitrate=8026.7kbits/s speed=0.0245x elapsed=0:03:01.09    \nframe=  541 fps=3.0 q=43.3 size=    4608KiB time=00:00:04.49 bitrate=8404.2kbits/s speed=0.0247x elapsed=0:03:01.61    \nframe=  547 fps=3.0 q=41.0 size=    4608KiB time=00:00:04.54 bitrate=8311.7kbits/s speed=0.0249x elapsed=0:03:02.12    \nframe=  553 fps=3.0 q=43.6 size=    4608KiB time=00:00:04.59 bitrate=8221.2kbits/s speed=0.0251x elapsed=0:03:02.63    \nframe=  559 fps=3.1 q=36.9 size=    4608KiB time=00:00:04.64 bitrate=8132.7kbits/s speed=0.0253x elapsed=0:03:03.16    \nframe=  566 fps=3.1 q=43.8 size=    4608KiB time=00:00:04.70 bitrate=8031.7kbits/s speed=0.0256x elapsed=0:03:03.68    \nframe=  571 fps=3.1 q=37.0 size=    4864KiB time=00:00:04.74 bitrate=8403.4kbits/s speed=0.0257x elapsed=0:03:04.19    \nframe=  578 fps=3.1 q=43.7 size=    4864KiB time=00:00:04.80 bitrate=8301.3kbits/s speed=0.026x elapsed=0:03:04.70    \nframe=  584 fps=3.2 q=37.2 size=    4864KiB time=00:00:04.85 bitrate=8215.7kbits/s speed=0.0262x elapsed=0:03:05.22    \nframe=  591 fps=3.2 q=43.7 size=    4864KiB time=00:00:04.90 bitrate=8118.1kbits/s speed=0.0264x elapsed=0:03:05.73    \nframe=  597 fps=3.2 q=39.1 size=    4864KiB time=00:00:04.95 bitrate=8036.2kbits/s speed=0.0266x elapsed=0:03:06.25    \n[mp4 @ 000002053f879b80] Starting second pass: moving the moov atom to the beginning of the file\n[out#0/mp4 @ 000002053f879a80] video:5111KiB audio:0KiB subtitle:0KiB other streams:0KiB global headers:2KiB muxing overhead: 0.214198%\nframe=  600 fps=3.2 q=43.5 Lsize=    5122KiB time=00:00:04.98 bitrate=8420.3kbits/s speed=0.0267x elapsed=0:03:06.36    \nx265 [info]: frame I:      3, Avg QP:35.68  kb/s: 28465.28\nx265 [info]: frame P:    147, Avg QP:35.67  kb/s: 22097.55\nx265 [info]: frame B:    450, Avg QP:41.08  kb/s: 3752.32 \nx265 [info]: Weighted P-Frames: Y:0.0% UV:0.0%\n\nencoded 600 frames in 186.17s (3.22 fps), 8370.46 kb/s, Avg QP:39.73\n",
  "seconds": 186.5282006263733,
  "probe_out": {}
}